<svg xmlns="http://www.w3.org/2000/svg" width="211.006" height="63" viewBox="0 0 211.006 63">
  <g id="Group_68" data-name="Group 68" transform="translate(-49.337 -210.469)">
    <g id="Group_2" data-name="Group 2">
      <path id="Path_1" data-name="Path 1" d="M57.036,232.449l14.281-14.281,1.666,1.667a1.01,1.01,0,0,0,1.428,0l3.332-3.333a1.01,1.01,0,0,0,0-1.428l-3.319-3.318a4.4,4.4,0,0,0-6.215,0L50.624,229.341a4.4,4.4,0,0,0,0,6.215l4.034,4.034,4.76-4.76Z" fill="#b100e8"/>
      <path id="Path_2" data-name="Path 2" d="M92.009,229.341l-3.318-3.318a1.009,1.009,0,0,0-1.428,0l-3.332,3.332a1.01,1.01,0,0,0,0,1.428l1.666,1.666-14.28,14.28h0l-4.76,4.76,1.653,1.653a4.393,4.393,0,0,0,6.215,0l17.585-17.585A4.393,4.393,0,0,0,92.009,229.341Z" fill="#b100e8"/>
      <path id="Path_3" data-name="Path 3" d="M92.009,254.6a4.394,4.394,0,0,0,0-6.216l-3.318-3.318a1.01,1.01,0,0,0-1.428,0L83.931,248.4a1.01,1.01,0,0,0,0,1.428l1.666,1.666-9.519,9.519,4.76,4.76Z" fill="#1f8fff"/>
      <path id="Path_4" data-name="Path 4" d="M71.317,265.769l-14.281-14.28.483-.483h0l11.923-11.924h0l1.874-1.874,1.666,1.666a1.01,1.01,0,0,0,1.428,0l3.332-3.332a1.01,1.01,0,0,0,0-1.428L74.424,230.8a4.4,4.4,0,0,0-6.215,0l-5.118,5.118,0,0-7.14,7.14,0,0-5.327,5.327a4.4,4.4,0,0,0,0,6.216l17.585,17.585a4.4,4.4,0,0,0,6.215,0l1.654-1.654-4.76-4.76Z" fill="#1f8fff"/>
    </g>
    <g id="Group_5" data-name="Group 5">
      <path id="Path_5" data-name="Path 5" d="M162.109,250.959l-8.781-18.465a1.745,1.745,0,0,0-1.131-.769,6.6,6.6,0,0,0-1.885-.256,6.432,6.432,0,0,0-1.84.256,1.745,1.745,0,0,0-1.131.769l-8.826,18.465a1.155,1.155,0,0,0-.044.256.763.763,0,0,0,.444.641,4,4,0,0,0,1.153.442,5.676,5.676,0,0,0,1.33.171,3.52,3.52,0,0,0,1.042-.143.851.851,0,0,0,.6-.484l1.774-3.223h11l1.819,3.223a.992.992,0,0,0,.6.484,3.1,3.1,0,0,0,1,.143,5.586,5.586,0,0,0,1.352-.171,4.1,4.1,0,0,0,1.153-.456q.467-.285.466-.627A.642.642,0,0,0,162.109,250.959Zm-16.232-5.585,4.435-9.774,4.435,9.774Z" fill="#fff"/>
      <path id="Path_6" data-name="Path 6" d="M260.255,250.959l-8.781-18.465a1.75,1.75,0,0,0-1.131-.769,6.608,6.608,0,0,0-1.885-.256,6.444,6.444,0,0,0-1.841.256,1.75,1.75,0,0,0-1.131.769l-8.825,18.465a1.1,1.1,0,0,0-.044.256.764.764,0,0,0,.443.641,4.019,4.019,0,0,0,1.153.442,5.691,5.691,0,0,0,1.331.171,3.524,3.524,0,0,0,1.042-.143.85.85,0,0,0,.6-.484l1.774-3.223h11l1.818,3.223a.994.994,0,0,0,.6.484,3.094,3.094,0,0,0,1,.143,5.594,5.594,0,0,0,1.353-.171,4.114,4.114,0,0,0,1.153-.456q.465-.285.465-.627A.636.636,0,0,0,260.255,250.959Zm-16.232-5.585,4.435-9.774,4.435,9.774Z" fill="#fff"/>
      <path id="Path_7" data-name="Path 7" d="M169.114,252.469a3.485,3.485,0,0,1-1.619-.377,1.241,1.241,0,0,1-.732-1.175v-17.9a1.271,1.271,0,0,1,.665-1.153,2.713,2.713,0,0,1,1.419-.4h15.567a1.211,1.211,0,0,1,1.153.665,2.978,2.978,0,0,1-.022,2.861,1.231,1.231,0,0,1-1.131.643h-12.95V240.9h6.874a1.263,1.263,0,0,1,1.131.577,2.4,2.4,0,0,1,.022,2.55,1.237,1.237,0,0,1-1.153.6h-6.874v6.292a1.24,1.24,0,0,1-.732,1.175A3.484,3.484,0,0,1,169.114,252.469Z" fill="#fff"/>
      <path id="Path_8" data-name="Path 8" d="M192.279,252.469a2.7,2.7,0,0,1-1.416-.4,1.266,1.266,0,0,1-.664-1.151v-17.9a1.269,1.269,0,0,1,.664-1.152,2.708,2.708,0,0,1,1.416-.4H208.04a1.246,1.246,0,0,1,1.2.664,2.885,2.885,0,0,1,.354,1.372,2.754,2.754,0,0,1-.4,1.484,1.276,1.276,0,0,1-1.15.641H194.891v5.29h6.818a1.317,1.317,0,0,1,1.151.576,2.282,2.282,0,0,1,.4,1.328,2.365,2.365,0,0,1-.354,1.218,1.278,1.278,0,0,1-1.2.6h-6.818v3.668H208.04a1.286,1.286,0,0,1,1.15.62,2.724,2.724,0,0,1,.4,1.505,2.883,2.883,0,0,1-.354,1.373,1.247,1.247,0,0,1-1.2.664Z" fill="#fff"/>
      <g id="Group_3" data-name="Group 3">
        <path id="Path_9" data-name="Path 9" d="M132.555,252.469a2.742,2.742,0,0,0,2.742-2.742V246.8a.631.631,0,0,0-.63-.63h-2.94a.63.63,0,0,0-.63.63v1.47h-8.4v4.2Z" fill="#fff"/>
        <path id="Path_10" data-name="Path 10" d="M118.5,248.269v-12.6h12.6v1.47a.63.63,0,0,0,.63.63h2.94a.631.631,0,0,0,.63-.63v-2.928a2.742,2.742,0,0,0-2.742-2.742H117.039a2.741,2.741,0,0,0-2.742,2.742v15.516a2.742,2.742,0,0,0,2.742,2.742H118.5v-4.2Z" fill="#fff"/>
      </g>
      <g id="Group_4" data-name="Group 4">
        <path id="Path_11" data-name="Path 11" d="M231.343,252.469a2.742,2.742,0,0,0,2.742-2.742V246.8a.63.63,0,0,0-.63-.63h-2.94a.63.63,0,0,0-.63.63v1.47h-8.4v4.2Z" fill="#fff"/>
        <path id="Path_12" data-name="Path 12" d="M217.285,248.269v-12.6h12.6v1.47a.63.63,0,0,0,.63.63h2.94a.63.63,0,0,0,.63-.63v-2.928a2.741,2.741,0,0,0-2.742-2.742H215.827a2.742,2.742,0,0,0-2.742,2.742v15.516a2.742,2.742,0,0,0,2.742,2.742h1.459v-4.2Z" fill="#fff"/>
      </g>
    </g>
  </g>
</svg>
