<?xml version="1.0" encoding="UTF-8"?><svg id="_圖層_2" xmlns="http://www.w3.org/2000/svg" viewBox="0 0 425.24 126.96"><defs><style>.cls-1{fill:#fff;}.cls-2{fill:#b100e8;}.cls-3{fill:#1f8fff;}.cls-4{fill:#9600e0;}</style></defs><g id="_圖層_1-2"><g><g><path class="cls-2" d="M15.52,44.3L44.3,15.52l3.36,3.36c.79,.79,2.08,.79,2.88,0l6.71-6.71c.79-.79,.79-2.08,0-2.88l-6.69-6.69c-3.46-3.46-9.07-3.46-12.53,0L2.59,38.03c-3.46,3.46-3.46,9.07,0,12.53l8.13,8.13,9.59-9.59-4.8-4.8Z"/><path class="cls-2" d="M86,38.03l-6.69-6.69c-.79-.79-2.08-.79-2.88,0l-6.71,6.71c-.79,.79-.79,2.08,0,2.88l3.36,3.36-28.78,28.78h0s-9.59,9.59-9.59,9.59l3.33,3.33c3.46,3.46,9.07,3.46,12.53,0l35.44-35.44c3.46-3.46,3.46-9.07,0-12.53Z"/><path class="cls-3" d="M86,88.93c3.46-3.46,3.46-9.07,0-12.53l-6.69-6.69c-.79-.79-2.08-.79-2.88,0l-6.71,6.71c-.79,.79-.79,2.08,0,2.88l3.36,3.36-19.18,19.18,9.59,9.59,22.51-22.51Z"/><path class="cls-3" d="M44.3,111.45l-28.78-28.78,.97-.97h0s24.03-24.03,24.03-24.03h0s3.78-3.78,3.78-3.78l3.36,3.36c.79,.79,2.08,.79,2.88,0l6.71-6.71c.79-.79,.79-2.08,0-2.88l-6.69-6.69c-3.46-3.46-9.07-3.46-12.53,0l-10.31,10.31h0s-14.39,14.39-14.39,14.39h0s-10.74,10.73-10.74,10.73c-3.46,3.46-3.46,9.07,0,12.53l35.44,35.44c3.46,3.46,9.07,3.46,12.53,0l3.33-3.33-9.59-9.59h0Z"/><rect class="cls-4" x="10.35" y="58.47" width="20.35" height="0" transform="translate(-35.34 31.64) rotate(-45)"/></g><g><path class="cls-1" d="M227.27,81.6l-17.7-37.21c-.36-.69-1.12-1.21-2.28-1.55-1.16-.34-2.43-.52-3.8-.52s-2.55,.17-3.71,.52c-1.16,.34-1.92,.86-2.28,1.55l-17.79,37.21c-.06,.23-.09,.4-.09,.52,0,.5,.3,.93,.89,1.29,.59,.36,1.37,.66,2.32,.89,.95,.23,1.85,.34,2.68,.34,.77,0,1.47-.1,2.1-.29,.63-.19,1.03-.52,1.21-.98l3.58-6.5h22.17l3.66,6.5c.24,.46,.64,.79,1.21,.98,.57,.19,1.24,.29,2.01,.29,.89,0,1.8-.11,2.73-.34,.92-.23,1.7-.54,2.32-.92,.63-.38,.94-.8,.94-1.26,0-.12-.06-.29-.18-.52Zm-32.71-11.25l8.94-19.7,8.94,19.7h-17.88Z"/><path class="cls-1" d="M425.06,81.6l-17.7-37.21c-.36-.69-1.12-1.21-2.28-1.55-1.16-.34-2.43-.52-3.8-.52s-2.55,.17-3.71,.52c-1.16,.34-1.92,.86-2.28,1.55l-17.79,37.21c-.06,.23-.09,.4-.09,.52,0,.5,.3,.93,.89,1.29,.59,.36,1.37,.66,2.32,.89,.95,.23,1.85,.34,2.68,.34,.77,0,1.47-.1,2.1-.29,.63-.19,1.03-.52,1.21-.98l3.58-6.5h22.17l3.66,6.5c.24,.46,.64,.79,1.21,.98,.57,.19,1.24,.29,2.01,.29,.89,0,1.8-.11,2.73-.34,.92-.23,1.7-.54,2.32-.92,.63-.38,.94-.8,.94-1.26,0-.12-.06-.29-.18-.52Zm-32.71-11.25l8.94-19.7,8.94,19.7h-17.88Z"/><path class="cls-1" d="M241.38,84.64c-1.19,0-2.28-.25-3.26-.76-.98-.51-1.48-1.3-1.48-2.37V45.45c0-1.01,.45-1.79,1.34-2.32,.89-.54,1.85-.8,2.86-.8h31.37c1.07,0,1.85,.45,2.32,1.34,.48,.89,.72,1.82,.72,2.77,0,1.13-.25,2.13-.76,2.99-.51,.86-1.27,1.3-2.28,1.3h-26.1v10.6h13.85c1.01,0,1.77,.39,2.28,1.16,.51,.78,.76,1.67,.76,2.68,0,.83-.24,1.65-.72,2.46-.48,.8-1.25,1.21-2.32,1.21h-13.85v12.68c0,1.07-.49,1.86-1.47,2.37-.98,.51-2.07,.76-3.26,.76Z"/><path class="cls-1" d="M288.07,84.64c-1.01,0-1.96-.27-2.85-.8s-1.34-1.31-1.34-2.32V45.44c0-1.01,.45-1.78,1.34-2.32,.89-.53,1.84-.8,2.85-.8h31.76c1.13,0,1.93,.45,2.41,1.34,.48,.89,.71,1.82,.71,2.77,0,1.13-.27,2.13-.8,2.99-.53,.86-1.31,1.29-2.32,1.29h-26.5v10.66h13.74c1.01,0,1.78,.39,2.32,1.16,.53,.77,.8,1.67,.8,2.68,0,.83-.24,1.65-.71,2.45-.48,.8-1.28,1.2-2.41,1.2h-13.74v7.39h26.5c1.01,0,1.78,.42,2.32,1.25,.54,.83,.8,1.84,.8,3.03,0,.95-.24,1.87-.71,2.77-.48,.89-1.28,1.34-2.41,1.34h-31.76Z"/><g><path class="cls-1" d="M167.71,84.64c3.05,0,5.53-2.47,5.53-5.53v-5.9c0-.7-.57-1.27-1.27-1.27h-5.92c-.7,0-1.27,.57-1.27,1.27v2.96h-16.93v8.46h19.86Z"/><path class="cls-1" d="M139.38,76.18v-25.39h.86s21.2,0,21.2,0h0s3.33,0,3.33,0v2.96c0,.7,.57,1.27,1.27,1.27h5.92c.7,0,1.27-.57,1.27-1.27v-5.9c0-3.05-2.47-5.53-5.53-5.53h-9.1s0,0,0,0h-12.7s-9.47,0-9.47,0c-3.05,0-5.53,2.47-5.53,5.53v31.27c0,3.05,2.47,5.53,5.53,5.53h2.94v-8.46s0,0,0,0Z"/></g><g><path class="cls-1" d="M366.79,84.64c3.05,0,5.53-2.47,5.53-5.53v-5.9c0-.7-.57-1.27-1.27-1.27h-5.92c-.7,0-1.27,.57-1.27,1.27v2.96h-16.93v8.46h19.86Z"/><path class="cls-1" d="M338.46,76.18v-25.39h.86s21.2,0,21.2,0h0s3.33,0,3.33,0v2.96c0,.7,.57,1.27,1.27,1.27h5.92c.7,0,1.27-.57,1.27-1.27v-5.9c0-3.05-2.47-5.53-5.53-5.53h-9.1s0,0,0,0h-12.7s-9.47,0-9.47,0c-3.05,0-5.53,2.47-5.53,5.53v31.27c0,3.05,2.47,5.53,5.53,5.53h2.94v-8.46s0,0,0,0Z"/></g></g></g></g></svg>