<svg xmlns="http://www.w3.org/2000/svg" width="44" height="44" viewBox="0 0 44 44">
  <g id="Group_3" data-name="Group 3" transform="translate(583 -128)">
    <rect id="Rectangle_41" data-name="Rectangle 41" width="44" height="44" transform="translate(-583 128)" fill="none"/>
    <path id="Path_1" data-name="Path 1" d="M1.221-1.387A1.421,1.421,0,0,1,1.675-2.48,1.611,1.611,0,0,1,2.813-2.9a1.624,1.624,0,0,1,1.147.42,1.421,1.421,0,0,1,.454,1.094A1.4,1.4,0,0,1,3.965-.308,1.631,1.631,0,0,1,2.813.107,1.618,1.618,0,0,1,1.67-.308,1.4,1.4,0,0,1,1.221-1.387Zm0-8a1.421,1.421,0,0,1,.454-1.094,1.611,1.611,0,0,1,1.138-.42,1.624,1.624,0,0,1,1.147.42,1.421,1.421,0,0,1,.454,1.094,1.4,1.4,0,0,1-.449,1.079,1.631,1.631,0,0,1-1.152.415A1.618,1.618,0,0,1,1.67-8.306,1.4,1.4,0,0,1,1.221-9.385Zm6.445,8A1.421,1.421,0,0,1,8.119-2.48,1.611,1.611,0,0,1,9.257-2.9a1.624,1.624,0,0,1,1.147.42,1.421,1.421,0,0,1,.454,1.094,1.4,1.4,0,0,1-.449,1.079A1.631,1.631,0,0,1,9.257.107,1.618,1.618,0,0,1,8.114-.308,1.4,1.4,0,0,1,7.665-1.387Zm0-8a1.421,1.421,0,0,1,.454-1.094,1.611,1.611,0,0,1,1.138-.42,1.624,1.624,0,0,1,1.147.42,1.421,1.421,0,0,1,.454,1.094,1.4,1.4,0,0,1-.449,1.079,1.631,1.631,0,0,1-1.152.415,1.618,1.618,0,0,1-1.143-.415A1.4,1.4,0,0,1,7.665-9.385Zm6.445,8a1.421,1.421,0,0,1,.454-1.094A1.611,1.611,0,0,1,15.7-2.9a1.624,1.624,0,0,1,1.147.42A1.421,1.421,0,0,1,17.3-1.387a1.4,1.4,0,0,1-.449,1.079A1.631,1.631,0,0,1,15.7.107a1.618,1.618,0,0,1-1.143-.415A1.4,1.4,0,0,1,14.11-1.387Zm0-8a1.421,1.421,0,0,1,.454-1.094A1.611,1.611,0,0,1,15.7-10.9a1.624,1.624,0,0,1,1.147.42A1.421,1.421,0,0,1,17.3-9.385a1.4,1.4,0,0,1-.449,1.079,1.631,1.631,0,0,1-1.152.415,1.618,1.618,0,0,1-1.143-.415A1.4,1.4,0,0,1,14.11-9.385Z" transform="translate(-570.221 154.898)" fill="#14292b"/>
  </g>
</svg>
